<mxfile host="app.diagrams.net" agent="Mozilla/5.0 (Windows NT 10.0; Win64; x64; rv:130.0) Gecko/20100101 Firefox/130.0" version="24.7.14">
  <diagram name="Страница — 1" id="4AjheSiWBKDwK5MCU0bO">
    <mxGraphModel dx="976" dy="606" grid="1" gridSize="10" guides="1" tooltips="1" connect="1" arrows="1" fold="1" page="1" pageScale="1" pageWidth="827" pageHeight="1169" math="0" shadow="0">
      <root>
        <mxCell id="0" />
        <mxCell id="1" parent="0" />
        <mxCell id="K8XefqdFIQyZMdRcd8Oq-2" value="" style="rounded=0;whiteSpace=wrap;html=1;movable=0;resizable=0;rotatable=0;deletable=0;editable=0;locked=1;connectable=0;" vertex="1" parent="1">
          <mxGeometry x="30" y="170" width="840" height="440" as="geometry" />
        </mxCell>
        <mxCell id="K8XefqdFIQyZMdRcd8Oq-1" value="Actor" style="shape=umlActor;verticalLabelPosition=bottom;verticalAlign=top;html=1;outlineConnect=0;" vertex="1" parent="1">
          <mxGeometry x="100" y="50" width="30" height="60" as="geometry" />
        </mxCell>
        <mxCell id="K8XefqdFIQyZMdRcd8Oq-3" value="" style="endArrow=classic;html=1;rounded=0;" edge="1" parent="1" source="K8XefqdFIQyZMdRcd8Oq-1">
          <mxGeometry width="50" height="50" relative="1" as="geometry">
            <mxPoint x="385" y="120" as="sourcePoint" />
            <mxPoint x="380" y="170" as="targetPoint" />
            <Array as="points">
              <mxPoint x="380" y="80" />
            </Array>
          </mxGeometry>
        </mxCell>
        <mxCell id="K8XefqdFIQyZMdRcd8Oq-4" value="vkkp-web" style="rounded=1;whiteSpace=wrap;html=1;" vertex="1" parent="1">
          <mxGeometry x="320" y="220" width="120" height="60" as="geometry" />
        </mxCell>
        <mxCell id="K8XefqdFIQyZMdRcd8Oq-5" value="" style="shape=cylinder3;whiteSpace=wrap;html=1;boundedLbl=1;backgroundOutline=1;size=15;" vertex="1" parent="1">
          <mxGeometry x="120" y="470" width="60" height="80" as="geometry" />
        </mxCell>
        <mxCell id="K8XefqdFIQyZMdRcd8Oq-6" value="" style="rounded=1;whiteSpace=wrap;html=1;" vertex="1" parent="1">
          <mxGeometry x="80" y="340" width="120" height="60" as="geometry" />
        </mxCell>
        <mxCell id="K8XefqdFIQyZMdRcd8Oq-7" value="vkkp-service" style="rounded=1;whiteSpace=wrap;html=1;verticalAlign=top;" vertex="1" parent="1">
          <mxGeometry x="90" y="680" width="160" height="400" as="geometry" />
        </mxCell>
        <mxCell id="K8XefqdFIQyZMdRcd8Oq-8" value="audit" style="shape=hexagon;perimeter=hexagonPerimeter2;whiteSpace=wrap;html=1;fixedSize=1;" vertex="1" parent="1">
          <mxGeometry x="100" y="880" width="140" height="40" as="geometry" />
        </mxCell>
        <mxCell id="K8XefqdFIQyZMdRcd8Oq-9" value="role-model" style="shape=hexagon;perimeter=hexagonPerimeter2;whiteSpace=wrap;html=1;fixedSize=1;" vertex="1" parent="1">
          <mxGeometry x="100" y="930" width="140" height="40" as="geometry" />
        </mxCell>
        <mxCell id="K8XefqdFIQyZMdRcd8Oq-10" value="issuance-control" style="shape=hexagon;perimeter=hexagonPerimeter2;whiteSpace=wrap;html=1;fixedSize=1;" vertex="1" parent="1">
          <mxGeometry x="100" y="980" width="140" height="40" as="geometry" />
        </mxCell>
        <mxCell id="K8XefqdFIQyZMdRcd8Oq-11" value="domain-model" style="shape=hexagon;perimeter=hexagonPerimeter2;whiteSpace=wrap;html=1;fixedSize=1;" vertex="1" parent="1">
          <mxGeometry x="100" y="830" width="140" height="40" as="geometry" />
        </mxCell>
        <mxCell id="K8XefqdFIQyZMdRcd8Oq-12" value="integration-layer" style="shape=hexagon;perimeter=hexagonPerimeter2;whiteSpace=wrap;html=1;fixedSize=1;" vertex="1" parent="1">
          <mxGeometry x="100" y="1030" width="140" height="40" as="geometry" />
        </mxCell>
        <mxCell id="K8XefqdFIQyZMdRcd8Oq-13" value="rest-api" style="shape=hexagon;perimeter=hexagonPerimeter2;whiteSpace=wrap;html=1;fixedSize=1;" vertex="1" parent="1">
          <mxGeometry x="100" y="780" width="140" height="40" as="geometry" />
        </mxCell>
      </root>
    </mxGraphModel>
  </diagram>
</mxfile>
